<mxfile host="65bd71144e">
    <diagram id="5L3f96AJavFCAy2jaFVa" name="Page-1">
        <mxGraphModel dx="925" dy="788" grid="1" gridSize="10" guides="1" tooltips="1" connect="1" arrows="1" fold="1" page="1" pageScale="1" pageWidth="827" pageHeight="1169" math="0" shadow="0">
            <root>
                <mxCell id="0"/>
                <mxCell id="1" parent="0"/>
                <mxCell id="4" value="Company" style="shape=table;startSize=30;container=1;collapsible=0;childLayout=tableLayout;fontStyle=1;align=center;shadow=0;fillStyle=solid;fillColor=#1ba1e2;strokeColor=#006EAF;fontColor=#ffffff;" parent="1" vertex="1">
                    <mxGeometry x="104" y="585" width="240" height="264" as="geometry"/>
                </mxCell>
                <mxCell id="5" value="" style="shape=tableRow;horizontal=0;startSize=0;swimlaneHead=0;swimlaneBody=0;top=0;left=0;bottom=0;right=0;collapsible=0;dropTarget=0;fillColor=none;points=[[0,0.5],[1,0.5]];portConstraint=eastwest;" parent="4" vertex="1">
                    <mxGeometry y="30" width="240" height="47" as="geometry"/>
                </mxCell>
                <mxCell id="6" value="id" style="shape=partialRectangle;html=1;whiteSpace=wrap;connectable=0;fillColor=none;top=0;left=0;bottom=0;right=0;overflow=hidden;fontStyle=1;fontSize=14;" parent="5" vertex="1">
                    <mxGeometry width="106" height="47" as="geometry">
                        <mxRectangle width="106" height="47" as="alternateBounds"/>
                    </mxGeometry>
                </mxCell>
                <mxCell id="7" value="int pk" style="shape=partialRectangle;html=1;whiteSpace=wrap;connectable=0;fillColor=none;top=0;left=0;bottom=0;right=0;overflow=hidden;" parent="5" vertex="1">
                    <mxGeometry x="106" width="110" height="47" as="geometry">
                        <mxRectangle width="110" height="47" as="alternateBounds"/>
                    </mxGeometry>
                </mxCell>
                <mxCell id="8" value="" style="shape=partialRectangle;html=1;whiteSpace=wrap;connectable=0;fillColor=none;top=0;left=0;bottom=0;right=0;overflow=hidden;" parent="5" vertex="1">
                    <mxGeometry x="216" width="24" height="47" as="geometry">
                        <mxRectangle width="24" height="47" as="alternateBounds"/>
                    </mxGeometry>
                </mxCell>
                <mxCell id="9" value="" style="shape=tableRow;horizontal=0;startSize=0;swimlaneHead=0;swimlaneBody=0;top=0;left=0;bottom=0;right=0;collapsible=0;dropTarget=0;fillColor=none;points=[[0,0.5],[1,0.5]];portConstraint=eastwest;" parent="4" vertex="1">
                    <mxGeometry y="77" width="240" height="46" as="geometry"/>
                </mxCell>
                <mxCell id="10" value="name" style="shape=partialRectangle;html=1;whiteSpace=wrap;connectable=0;fillColor=none;top=0;left=0;bottom=0;right=0;overflow=hidden;fontStyle=1;fontSize=14;" parent="9" vertex="1">
                    <mxGeometry width="106" height="46" as="geometry">
                        <mxRectangle width="106" height="46" as="alternateBounds"/>
                    </mxGeometry>
                </mxCell>
                <mxCell id="11" value="string" style="shape=partialRectangle;html=1;whiteSpace=wrap;connectable=0;fillColor=none;top=0;left=0;bottom=0;right=0;overflow=hidden;" parent="9" vertex="1">
                    <mxGeometry x="106" width="110" height="46" as="geometry">
                        <mxRectangle width="110" height="46" as="alternateBounds"/>
                    </mxGeometry>
                </mxCell>
                <mxCell id="12" value="" style="shape=partialRectangle;html=1;whiteSpace=wrap;connectable=0;fillColor=none;top=0;left=0;bottom=0;right=0;overflow=hidden;" parent="9" vertex="1">
                    <mxGeometry x="216" width="24" height="46" as="geometry">
                        <mxRectangle width="24" height="46" as="alternateBounds"/>
                    </mxGeometry>
                </mxCell>
                <mxCell id="13" value="" style="shape=tableRow;horizontal=0;startSize=0;swimlaneHead=0;swimlaneBody=0;top=0;left=0;bottom=0;right=0;collapsible=0;dropTarget=0;fillColor=none;points=[[0,0.5],[1,0.5]];portConstraint=eastwest;" parent="4" vertex="1">
                    <mxGeometry y="123" width="240" height="47" as="geometry"/>
                </mxCell>
                <mxCell id="14" value="desc" style="shape=partialRectangle;html=1;whiteSpace=wrap;connectable=0;fillColor=none;top=0;left=0;bottom=0;right=0;overflow=hidden;fontStyle=1;fontSize=14;" parent="13" vertex="1">
                    <mxGeometry width="106" height="47" as="geometry">
                        <mxRectangle width="106" height="47" as="alternateBounds"/>
                    </mxGeometry>
                </mxCell>
                <mxCell id="15" value="string" style="shape=partialRectangle;html=1;whiteSpace=wrap;connectable=0;fillColor=none;top=0;left=0;bottom=0;right=0;overflow=hidden;" parent="13" vertex="1">
                    <mxGeometry x="106" width="110" height="47" as="geometry">
                        <mxRectangle width="110" height="47" as="alternateBounds"/>
                    </mxGeometry>
                </mxCell>
                <mxCell id="16" value="" style="shape=partialRectangle;html=1;whiteSpace=wrap;connectable=0;fillColor=none;top=0;left=0;bottom=0;right=0;overflow=hidden;" parent="13" vertex="1">
                    <mxGeometry x="216" width="24" height="47" as="geometry">
                        <mxRectangle width="24" height="47" as="alternateBounds"/>
                    </mxGeometry>
                </mxCell>
                <mxCell id="45" style="shape=tableRow;horizontal=0;startSize=0;swimlaneHead=0;swimlaneBody=0;top=0;left=0;bottom=0;right=0;collapsible=0;dropTarget=0;fillColor=none;points=[[0,0.5],[1,0.5]];portConstraint=eastwest;" vertex="1" parent="4">
                    <mxGeometry y="170" width="240" height="47" as="geometry"/>
                </mxCell>
                <mxCell id="46" value="ticker" style="shape=partialRectangle;html=1;whiteSpace=wrap;connectable=0;fillColor=none;top=0;left=0;bottom=0;right=0;overflow=hidden;fontStyle=1;fontSize=14;" vertex="1" parent="45">
                    <mxGeometry width="106" height="47" as="geometry">
                        <mxRectangle width="106" height="47" as="alternateBounds"/>
                    </mxGeometry>
                </mxCell>
                <mxCell id="47" value="string" style="shape=partialRectangle;html=1;whiteSpace=wrap;connectable=0;fillColor=none;top=0;left=0;bottom=0;right=0;overflow=hidden;" vertex="1" parent="45">
                    <mxGeometry x="106" width="110" height="47" as="geometry">
                        <mxRectangle width="110" height="47" as="alternateBounds"/>
                    </mxGeometry>
                </mxCell>
                <mxCell id="48" style="shape=partialRectangle;html=1;whiteSpace=wrap;connectable=0;fillColor=none;top=0;left=0;bottom=0;right=0;overflow=hidden;" vertex="1" parent="45">
                    <mxGeometry x="216" width="24" height="47" as="geometry">
                        <mxRectangle width="24" height="47" as="alternateBounds"/>
                    </mxGeometry>
                </mxCell>
                <mxCell id="116" style="shape=tableRow;horizontal=0;startSize=0;swimlaneHead=0;swimlaneBody=0;top=0;left=0;bottom=0;right=0;collapsible=0;dropTarget=0;fillColor=none;points=[[0,0.5],[1,0.5]];portConstraint=eastwest;" vertex="1" parent="4">
                    <mxGeometry y="217" width="240" height="47" as="geometry"/>
                </mxCell>
                <mxCell id="117" value="industry_id" style="shape=partialRectangle;html=1;whiteSpace=wrap;connectable=0;fillColor=none;top=0;left=0;bottom=0;right=0;overflow=hidden;fontStyle=1;fontSize=14;" vertex="1" parent="116">
                    <mxGeometry width="106" height="47" as="geometry">
                        <mxRectangle width="106" height="47" as="alternateBounds"/>
                    </mxGeometry>
                </mxCell>
                <mxCell id="118" value="int fk" style="shape=partialRectangle;html=1;whiteSpace=wrap;connectable=0;fillColor=none;top=0;left=0;bottom=0;right=0;overflow=hidden;" vertex="1" parent="116">
                    <mxGeometry x="106" width="110" height="47" as="geometry">
                        <mxRectangle width="110" height="47" as="alternateBounds"/>
                    </mxGeometry>
                </mxCell>
                <mxCell id="119" style="shape=partialRectangle;html=1;whiteSpace=wrap;connectable=0;fillColor=none;top=0;left=0;bottom=0;right=0;overflow=hidden;" vertex="1" parent="116">
                    <mxGeometry x="216" width="24" height="47" as="geometry">
                        <mxRectangle width="24" height="47" as="alternateBounds"/>
                    </mxGeometry>
                </mxCell>
                <mxCell id="53" value="Industries" style="shape=table;startSize=30;container=1;collapsible=0;childLayout=tableLayout;fontStyle=1;align=center;shadow=0;fillStyle=solid;fillColor=#f0a30a;strokeColor=#BD7000;fontColor=#000000;" vertex="1" parent="1">
                    <mxGeometry x="484" y="585" width="240" height="217" as="geometry"/>
                </mxCell>
                <mxCell id="54" value="" style="shape=tableRow;horizontal=0;startSize=0;swimlaneHead=0;swimlaneBody=0;top=0;left=0;bottom=0;right=0;collapsible=0;dropTarget=0;fillColor=none;points=[[0,0.5],[1,0.5]];portConstraint=eastwest;shadow=0;fillStyle=solid;" vertex="1" parent="53">
                    <mxGeometry y="30" width="240" height="47" as="geometry"/>
                </mxCell>
                <mxCell id="55" value="&lt;b&gt;&lt;font style=&quot;font-size: 14px;&quot;&gt;id&lt;/font&gt;&lt;/b&gt;" style="shape=partialRectangle;html=1;whiteSpace=wrap;connectable=0;fillColor=none;top=0;left=0;bottom=0;right=0;overflow=hidden;shadow=0;fillStyle=solid;" vertex="1" parent="54">
                    <mxGeometry width="106" height="47" as="geometry">
                        <mxRectangle width="106" height="47" as="alternateBounds"/>
                    </mxGeometry>
                </mxCell>
                <mxCell id="56" value="int pk" style="shape=partialRectangle;html=1;whiteSpace=wrap;connectable=0;fillColor=none;top=0;left=0;bottom=0;right=0;overflow=hidden;shadow=0;fillStyle=solid;" vertex="1" parent="54">
                    <mxGeometry x="106" width="114" height="47" as="geometry">
                        <mxRectangle width="114" height="47" as="alternateBounds"/>
                    </mxGeometry>
                </mxCell>
                <mxCell id="57" value="" style="shape=partialRectangle;html=1;whiteSpace=wrap;connectable=0;fillColor=none;top=0;left=0;bottom=0;right=0;overflow=hidden;shadow=0;fillStyle=solid;" vertex="1" parent="54">
                    <mxGeometry x="220" width="20" height="47" as="geometry">
                        <mxRectangle width="20" height="47" as="alternateBounds"/>
                    </mxGeometry>
                </mxCell>
                <mxCell id="58" value="" style="shape=tableRow;horizontal=0;startSize=0;swimlaneHead=0;swimlaneBody=0;top=0;left=0;bottom=0;right=0;collapsible=0;dropTarget=0;fillColor=none;points=[[0,0.5],[1,0.5]];portConstraint=eastwest;shadow=0;fillStyle=solid;" vertex="1" parent="53">
                    <mxGeometry y="77" width="240" height="46" as="geometry"/>
                </mxCell>
                <mxCell id="59" value="name" style="shape=partialRectangle;html=1;whiteSpace=wrap;connectable=0;fillColor=none;top=0;left=0;bottom=0;right=0;overflow=hidden;shadow=0;fillStyle=solid;fontStyle=1;fontSize=14;" vertex="1" parent="58">
                    <mxGeometry width="106" height="46" as="geometry">
                        <mxRectangle width="106" height="46" as="alternateBounds"/>
                    </mxGeometry>
                </mxCell>
                <mxCell id="60" value="string" style="shape=partialRectangle;html=1;whiteSpace=wrap;connectable=0;fillColor=none;top=0;left=0;bottom=0;right=0;overflow=hidden;shadow=0;fillStyle=solid;" vertex="1" parent="58">
                    <mxGeometry x="106" width="114" height="46" as="geometry">
                        <mxRectangle width="114" height="46" as="alternateBounds"/>
                    </mxGeometry>
                </mxCell>
                <mxCell id="61" value="" style="shape=partialRectangle;html=1;whiteSpace=wrap;connectable=0;fillColor=none;top=0;left=0;bottom=0;right=0;overflow=hidden;shadow=0;fillStyle=solid;" vertex="1" parent="58">
                    <mxGeometry x="220" width="20" height="46" as="geometry">
                        <mxRectangle width="20" height="46" as="alternateBounds"/>
                    </mxGeometry>
                </mxCell>
                <mxCell id="62" value="" style="shape=tableRow;horizontal=0;startSize=0;swimlaneHead=0;swimlaneBody=0;top=0;left=0;bottom=0;right=0;collapsible=0;dropTarget=0;fillColor=none;points=[[0,0.5],[1,0.5]];portConstraint=eastwest;shadow=0;fillStyle=solid;" vertex="1" parent="53">
                    <mxGeometry y="123" width="240" height="47" as="geometry"/>
                </mxCell>
                <mxCell id="63" value="desc" style="shape=partialRectangle;html=1;whiteSpace=wrap;connectable=0;fillColor=none;top=0;left=0;bottom=0;right=0;overflow=hidden;shadow=0;fillStyle=solid;fontStyle=1;fontSize=14;" vertex="1" parent="62">
                    <mxGeometry width="106" height="47" as="geometry">
                        <mxRectangle width="106" height="47" as="alternateBounds"/>
                    </mxGeometry>
                </mxCell>
                <mxCell id="64" value="string" style="shape=partialRectangle;html=1;whiteSpace=wrap;connectable=0;fillColor=none;top=0;left=0;bottom=0;right=0;overflow=hidden;shadow=0;fillStyle=solid;" vertex="1" parent="62">
                    <mxGeometry x="106" width="114" height="47" as="geometry">
                        <mxRectangle width="114" height="47" as="alternateBounds"/>
                    </mxGeometry>
                </mxCell>
                <mxCell id="65" value="" style="shape=partialRectangle;html=1;whiteSpace=wrap;connectable=0;fillColor=none;top=0;left=0;bottom=0;right=0;overflow=hidden;shadow=0;fillStyle=solid;" vertex="1" parent="62">
                    <mxGeometry x="220" width="20" height="47" as="geometry">
                        <mxRectangle width="20" height="47" as="alternateBounds"/>
                    </mxGeometry>
                </mxCell>
                <mxCell id="66" style="shape=tableRow;horizontal=0;startSize=0;swimlaneHead=0;swimlaneBody=0;top=0;left=0;bottom=0;right=0;collapsible=0;dropTarget=0;fillColor=none;points=[[0,0.5],[1,0.5]];portConstraint=eastwest;shadow=0;fillStyle=solid;" vertex="1" parent="53">
                    <mxGeometry y="170" width="240" height="47" as="geometry"/>
                </mxCell>
                <mxCell id="67" value="company_id" style="shape=partialRectangle;html=1;whiteSpace=wrap;connectable=0;fillColor=none;top=0;left=0;bottom=0;right=0;overflow=hidden;shadow=0;fillStyle=solid;fontStyle=1;fontSize=14;" vertex="1" parent="66">
                    <mxGeometry width="106" height="47" as="geometry">
                        <mxRectangle width="106" height="47" as="alternateBounds"/>
                    </mxGeometry>
                </mxCell>
                <mxCell id="68" value="int fk" style="shape=partialRectangle;html=1;whiteSpace=wrap;connectable=0;fillColor=none;top=0;left=0;bottom=0;right=0;overflow=hidden;shadow=0;fillStyle=solid;" vertex="1" parent="66">
                    <mxGeometry x="106" width="114" height="47" as="geometry">
                        <mxRectangle width="114" height="47" as="alternateBounds"/>
                    </mxGeometry>
                </mxCell>
                <mxCell id="69" style="shape=partialRectangle;html=1;whiteSpace=wrap;connectable=0;fillColor=none;top=0;left=0;bottom=0;right=0;overflow=hidden;shadow=0;fillStyle=solid;" vertex="1" parent="66">
                    <mxGeometry x="220" width="20" height="47" as="geometry">
                        <mxRectangle width="20" height="47" as="alternateBounds"/>
                    </mxGeometry>
                </mxCell>
                <mxCell id="87" value="depot" style="shape=table;startSize=30;container=1;collapsible=0;childLayout=tableLayout;fontStyle=1;align=center;shadow=0;fillStyle=solid;fillColor=#f5f5f5;fontColor=#333333;strokeColor=#FFFFFF;" vertex="1" parent="1">
                    <mxGeometry x="260" y="180" width="306" height="277" as="geometry"/>
                </mxCell>
                <mxCell id="88" value="" style="shape=tableRow;horizontal=0;startSize=0;swimlaneHead=0;swimlaneBody=0;top=0;left=0;bottom=0;right=0;collapsible=0;dropTarget=0;fillColor=none;points=[[0,0.5],[1,0.5]];portConstraint=eastwest;shadow=0;fillStyle=solid;" vertex="1" parent="87">
                    <mxGeometry y="30" width="306" height="50" as="geometry"/>
                </mxCell>
                <mxCell id="89" value="id" style="shape=partialRectangle;html=1;whiteSpace=wrap;connectable=0;fillColor=none;top=0;left=0;bottom=0;right=0;overflow=hidden;shadow=0;fillStyle=solid;" vertex="1" parent="88">
                    <mxGeometry width="135" height="50" as="geometry">
                        <mxRectangle width="135" height="50" as="alternateBounds"/>
                    </mxGeometry>
                </mxCell>
                <mxCell id="90" value="int pk" style="shape=partialRectangle;html=1;whiteSpace=wrap;connectable=0;fillColor=none;top=0;left=0;bottom=0;right=0;overflow=hidden;shadow=0;fillStyle=solid;" vertex="1" parent="88">
                    <mxGeometry x="135" width="128" height="50" as="geometry">
                        <mxRectangle width="128" height="50" as="alternateBounds"/>
                    </mxGeometry>
                </mxCell>
                <mxCell id="91" value="" style="shape=partialRectangle;html=1;whiteSpace=wrap;connectable=0;fillColor=none;top=0;left=0;bottom=0;right=0;overflow=hidden;shadow=0;fillStyle=solid;" vertex="1" parent="88">
                    <mxGeometry x="263" width="43" height="50" as="geometry">
                        <mxRectangle width="43" height="50" as="alternateBounds"/>
                    </mxGeometry>
                </mxCell>
                <mxCell id="92" value="" style="shape=tableRow;horizontal=0;startSize=0;swimlaneHead=0;swimlaneBody=0;top=0;left=0;bottom=0;right=0;collapsible=0;dropTarget=0;fillColor=none;points=[[0,0.5],[1,0.5]];portConstraint=eastwest;shadow=0;fillStyle=solid;" vertex="1" parent="87">
                    <mxGeometry y="80" width="306" height="48" as="geometry"/>
                </mxCell>
                <mxCell id="93" value="price" style="shape=partialRectangle;html=1;whiteSpace=wrap;connectable=0;fillColor=none;top=0;left=0;bottom=0;right=0;overflow=hidden;shadow=0;fillStyle=solid;" vertex="1" parent="92">
                    <mxGeometry width="135" height="48" as="geometry">
                        <mxRectangle width="135" height="48" as="alternateBounds"/>
                    </mxGeometry>
                </mxCell>
                <mxCell id="94" value="number" style="shape=partialRectangle;html=1;whiteSpace=wrap;connectable=0;fillColor=none;top=0;left=0;bottom=0;right=0;overflow=hidden;shadow=0;fillStyle=solid;" vertex="1" parent="92">
                    <mxGeometry x="135" width="128" height="48" as="geometry">
                        <mxRectangle width="128" height="48" as="alternateBounds"/>
                    </mxGeometry>
                </mxCell>
                <mxCell id="95" value="" style="shape=partialRectangle;html=1;whiteSpace=wrap;connectable=0;fillColor=none;top=0;left=0;bottom=0;right=0;overflow=hidden;shadow=0;fillStyle=solid;" vertex="1" parent="92">
                    <mxGeometry x="263" width="43" height="48" as="geometry">
                        <mxRectangle width="43" height="48" as="alternateBounds"/>
                    </mxGeometry>
                </mxCell>
                <mxCell id="96" value="" style="shape=tableRow;horizontal=0;startSize=0;swimlaneHead=0;swimlaneBody=0;top=0;left=0;bottom=0;right=0;collapsible=0;dropTarget=0;fillColor=none;points=[[0,0.5],[1,0.5]];portConstraint=eastwest;shadow=0;fillStyle=solid;" vertex="1" parent="87">
                    <mxGeometry y="128" width="306" height="49" as="geometry"/>
                </mxCell>
                <mxCell id="97" value="quantity" style="shape=partialRectangle;html=1;whiteSpace=wrap;connectable=0;fillColor=none;top=0;left=0;bottom=0;right=0;overflow=hidden;shadow=0;fillStyle=solid;" vertex="1" parent="96">
                    <mxGeometry width="135" height="49" as="geometry">
                        <mxRectangle width="135" height="49" as="alternateBounds"/>
                    </mxGeometry>
                </mxCell>
                <mxCell id="98" value="number" style="shape=partialRectangle;html=1;whiteSpace=wrap;connectable=0;fillColor=none;top=0;left=0;bottom=0;right=0;overflow=hidden;shadow=0;fillStyle=solid;" vertex="1" parent="96">
                    <mxGeometry x="135" width="128" height="49" as="geometry">
                        <mxRectangle width="128" height="49" as="alternateBounds"/>
                    </mxGeometry>
                </mxCell>
                <mxCell id="99" value="" style="shape=partialRectangle;html=1;whiteSpace=wrap;connectable=0;fillColor=none;top=0;left=0;bottom=0;right=0;overflow=hidden;shadow=0;fillStyle=solid;" vertex="1" parent="96">
                    <mxGeometry x="263" width="43" height="49" as="geometry">
                        <mxRectangle width="43" height="49" as="alternateBounds"/>
                    </mxGeometry>
                </mxCell>
                <mxCell id="100" style="shape=tableRow;horizontal=0;startSize=0;swimlaneHead=0;swimlaneBody=0;top=0;left=0;bottom=0;right=0;collapsible=0;dropTarget=0;fillColor=none;points=[[0,0.5],[1,0.5]];portConstraint=eastwest;shadow=0;fillStyle=solid;" vertex="1" parent="87">
                    <mxGeometry y="177" width="306" height="50" as="geometry"/>
                </mxCell>
                <mxCell id="101" value="company_id" style="shape=partialRectangle;html=1;whiteSpace=wrap;connectable=0;fillColor=none;top=0;left=0;bottom=0;right=0;overflow=hidden;shadow=0;fillStyle=solid;" vertex="1" parent="100">
                    <mxGeometry width="135" height="50" as="geometry">
                        <mxRectangle width="135" height="50" as="alternateBounds"/>
                    </mxGeometry>
                </mxCell>
                <mxCell id="102" value="int fk" style="shape=partialRectangle;html=1;whiteSpace=wrap;connectable=0;fillColor=none;top=0;left=0;bottom=0;right=0;overflow=hidden;shadow=0;fillStyle=solid;" vertex="1" parent="100">
                    <mxGeometry x="135" width="128" height="50" as="geometry">
                        <mxRectangle width="128" height="50" as="alternateBounds"/>
                    </mxGeometry>
                </mxCell>
                <mxCell id="103" style="shape=partialRectangle;html=1;whiteSpace=wrap;connectable=0;fillColor=none;top=0;left=0;bottom=0;right=0;overflow=hidden;shadow=0;fillStyle=solid;" vertex="1" parent="100">
                    <mxGeometry x="263" width="43" height="50" as="geometry">
                        <mxRectangle width="43" height="50" as="alternateBounds"/>
                    </mxGeometry>
                </mxCell>
                <mxCell id="112" style="shape=tableRow;horizontal=0;startSize=0;swimlaneHead=0;swimlaneBody=0;top=0;left=0;bottom=0;right=0;collapsible=0;dropTarget=0;fillColor=none;points=[[0,0.5],[1,0.5]];portConstraint=eastwest;shadow=0;fillStyle=solid;" vertex="1" parent="87">
                    <mxGeometry y="227" width="306" height="50" as="geometry"/>
                </mxCell>
                <mxCell id="113" value="industry_id" style="shape=partialRectangle;html=1;whiteSpace=wrap;connectable=0;fillColor=none;top=0;left=0;bottom=0;right=0;overflow=hidden;shadow=0;fillStyle=solid;" vertex="1" parent="112">
                    <mxGeometry width="135" height="50" as="geometry">
                        <mxRectangle width="135" height="50" as="alternateBounds"/>
                    </mxGeometry>
                </mxCell>
                <mxCell id="114" value="int fk" style="shape=partialRectangle;html=1;whiteSpace=wrap;connectable=0;fillColor=none;top=0;left=0;bottom=0;right=0;overflow=hidden;shadow=0;fillStyle=solid;" vertex="1" parent="112">
                    <mxGeometry x="135" width="128" height="50" as="geometry">
                        <mxRectangle width="128" height="50" as="alternateBounds"/>
                    </mxGeometry>
                </mxCell>
                <mxCell id="115" style="shape=partialRectangle;html=1;whiteSpace=wrap;connectable=0;fillColor=none;top=0;left=0;bottom=0;right=0;overflow=hidden;shadow=0;fillStyle=solid;" vertex="1" parent="112">
                    <mxGeometry x="263" width="43" height="50" as="geometry">
                        <mxRectangle width="43" height="50" as="alternateBounds"/>
                    </mxGeometry>
                </mxCell>
            </root>
        </mxGraphModel>
    </diagram>
</mxfile>